<?xml version="1.0" encoding="utf-8"?>
<svg version="1.1" xmlns:xlink="http://www.w3.org/1999/xlink" width="10px" height="20px" xmlns="http://www.w3.org/2000/svg">
  <g transform="matrix(1 0 0 1 -111 -1488 )">
    <path d="M 10 1.428571428571428  L 9.285714285714286 1.428571428571428  C 6.904761904761906 1.428571428571428  5.7142857142857135 2.2619047619047605  5.7142857142857135 3.928571428571428  L 5.7142857142857135 8.571428571428573  L 7.142857142857143 8.571428571428573  L 7.142857142857143 10  L 5.7142857142857135 10  L 5.7142857142857135 16.071428571428573  C 5.7142857142857135 17.738095238095237  6.904761904761906 18.571428571428573  9.285714285714286 18.571428571428573  L 10 18.571428571428573  L 10 20  L 9.285714285714286 20  C 7.261904761904763 20  5.833333333333334 19.456845238095237  5 18.370535714285715  C 4.166666666666667 19.456845238095237  2.738095238095238 20  0.7142857142857142 20  L 0 20  L 0 18.571428571428573  L 0.7142857142857142 18.571428571428573  C 3.095238095238095 18.571428571428573  4.285714285714286 17.738095238095237  4.285714285714286 16.071428571428573  L 4.285714285714286 10  L 2.8571428571428568 10  L 2.8571428571428568 8.571428571428573  L 4.285714285714286 8.571428571428573  L 4.285714285714286 3.928571428571428  C 4.285714285714286 2.2619047619047605  3.095238095238095 1.428571428571428  0.7142857142857142 1.428571428571428  L 0 1.428571428571428  L 0 0  L 0.7142857142857142 0  C 2.738095238095238 0  4.166666666666667 0.5431547619047628  5 1.629464285714286  C 5.833333333333334 0.5431547619047628  7.261904761904763 0  9.285714285714286 0  L 10 0  L 10 1.428571428571428  Z " fill-rule="nonzero" fill="#000000" stroke="none" transform="matrix(1 0 0 1 111 1488 )" />
  </g>
</svg>