<?xml version="1.0" encoding="utf-8"?>
<svg version="1.1" xmlns:xlink="http://www.w3.org/1999/xlink" width="16px" height="20px" xmlns="http://www.w3.org/2000/svg">
  <defs>
    <mask fill="white" id="clip1">
      <path d="M 1.511265164644714 0.21205357142857206  L 15.708838821490469 11.640625  C 15.995378393991913 11.863839285714286  16.060080878105143 12.120535714285714  15.902946273830157 12.410714285714286  C 15.745811669555172 12.708333333333336  15.473136915077989 12.857142857142856  15.084922010398614 12.857142857142856  L 9.788561525129982 12.857142857142856  L 12.575389948006933 18.169642857142858  C 12.66782206816869 18.355654761904763  12.66782206816869 18.537946428571427  12.575389948006933 18.716517857142858  C 12.482957827845178 18.895089285714285  12.325823223570191 19.02529761904762  12.103986135181975 19.107142857142858  L 9.649913344887349 19.944196428571427  C 9.418833044482959 20.01860119047619  9.192374350086656 20.01860119047619  8.970537261698441 19.944196428571427  C 8.748700173310226 19.869791666666664  8.586943963027153 19.743303571428573  8.48526863084922 19.564732142857142  L 5.837088388214904 14.520089285714286  L 1.511265164644714 18.002232142857142  C 1.3356441363373774 18.14360119047619  1.127671865973426 18.214285714285715  0.8873483535528596 18.214285714285715  C 0.7764298093587522 18.214285714285715  0.6655112651646448 18.195684523809522  0.5545927209705372 18.158482142857142  C 0.1848642403235124 18.031994047619047  0 17.8125  0 17.5  L 0 0.714285714285714  C 0 0.40178571428571397  0.1848642403235124 0.1822916666666652  0.5545927209705372 0.05580357142857206  C 0.6655112651646448 0.018601190476190688  0.7764298093587522 0  0.8873483535528596 0  C 1.1369150779896013 0  1.3448873483535528 0.0706845238095255  1.511265164644714 0.21205357142857206  Z " fill-rule="evenodd" />
    </mask>
  </defs>
  <g transform="matrix(1 0 0 1 -779 -619 )">
    <path d="M 1.511265164644714 0.21205357142857206  L 15.708838821490469 11.640625  C 15.995378393991913 11.863839285714286  16.060080878105143 12.120535714285714  15.902946273830157 12.410714285714286  C 15.745811669555172 12.708333333333336  15.473136915077989 12.857142857142856  15.084922010398614 12.857142857142856  L 9.788561525129982 12.857142857142856  L 12.575389948006933 18.169642857142858  C 12.66782206816869 18.355654761904763  12.66782206816869 18.537946428571427  12.575389948006933 18.716517857142858  C 12.482957827845178 18.895089285714285  12.325823223570191 19.02529761904762  12.103986135181975 19.107142857142858  L 9.649913344887349 19.944196428571427  C 9.418833044482959 20.01860119047619  9.192374350086656 20.01860119047619  8.970537261698441 19.944196428571427  C 8.748700173310226 19.869791666666664  8.586943963027153 19.743303571428573  8.48526863084922 19.564732142857142  L 5.837088388214904 14.520089285714286  L 1.511265164644714 18.002232142857142  C 1.3356441363373774 18.14360119047619  1.127671865973426 18.214285714285715  0.8873483535528596 18.214285714285715  C 0.7764298093587522 18.214285714285715  0.6655112651646448 18.195684523809522  0.5545927209705372 18.158482142857142  C 0.1848642403235124 18.031994047619047  0 17.8125  0 17.5  L 0 0.714285714285714  C 0 0.40178571428571397  0.1848642403235124 0.1822916666666652  0.5545927209705372 0.05580357142857206  C 0.6655112651646448 0.018601190476190688  0.7764298093587522 0  0.8873483535528596 0  C 1.1369150779896013 0  1.3448873483535528 0.0706845238095255  1.511265164644714 0.21205357142857206  Z " fill-rule="nonzero" fill="#ffffff" stroke="none" transform="matrix(1 0 0 1 779 619 )" />
    <path d="M 1.511265164644714 0.21205357142857206  L 15.708838821490469 11.640625  C 15.995378393991913 11.863839285714286  16.060080878105143 12.120535714285714  15.902946273830157 12.410714285714286  C 15.745811669555172 12.708333333333336  15.473136915077989 12.857142857142856  15.084922010398614 12.857142857142856  L 9.788561525129982 12.857142857142856  L 12.575389948006933 18.169642857142858  C 12.66782206816869 18.355654761904763  12.66782206816869 18.537946428571427  12.575389948006933 18.716517857142858  C 12.482957827845178 18.895089285714285  12.325823223570191 19.02529761904762  12.103986135181975 19.107142857142858  L 9.649913344887349 19.944196428571427  C 9.418833044482959 20.01860119047619  9.192374350086656 20.01860119047619  8.970537261698441 19.944196428571427  C 8.748700173310226 19.869791666666664  8.586943963027153 19.743303571428573  8.48526863084922 19.564732142857142  L 5.837088388214904 14.520089285714286  L 1.511265164644714 18.002232142857142  C 1.3356441363373774 18.14360119047619  1.127671865973426 18.214285714285715  0.8873483535528596 18.214285714285715  C 0.7764298093587522 18.214285714285715  0.6655112651646448 18.195684523809522  0.5545927209705372 18.158482142857142  C 0.1848642403235124 18.031994047619047  0 17.8125  0 17.5  L 0 0.714285714285714  C 0 0.40178571428571397  0.1848642403235124 0.1822916666666652  0.5545927209705372 0.05580357142857206  C 0.6655112651646448 0.018601190476190688  0.7764298093587522 0  0.8873483535528596 0  C 1.1369150779896013 0  1.3448873483535528 0.0706845238095255  1.511265164644714 0.21205357142857206  Z " stroke-width="2" stroke="#000000" fill="none" transform="matrix(1 0 0 1 779 619 )" mask="url(#clip1)" />
  </g>
</svg>