<?xml version="1.0" encoding="utf-8"?>
<svg version="1.1" xmlns:xlink="http://www.w3.org/1999/xlink" width="20px" height="27px" xmlns="http://www.w3.org/2000/svg">
  <g transform="matrix(1 0 0 1 -447 -599 )">
    <path d="M 8.786057692307693 2.5237165178571415  C 8.489583333333334 2.126953124999999  8.125 1.9285714285714277  7.6923076923076925 1.9285714285714277  C 7.267628205128206 1.9285714285714277  6.905048076923077 2.1169084821428585  6.6045673076923075 2.493582589285714  C 6.304086538461538 2.870256696428572  6.153846153846154 3.324776785714282  6.153846153846154 3.8571428571428585  L 6.153846153846154 11.571428571428573  L 6.153846153846154 17.357142857142854  L 4.3389423076923075 14.313616071428573  C 4.010416666666667 13.771205357142856  3.581730769230769 13.5  3.052884615384616 13.5  C 2.636217948717949 13.5  2.279647435897436 13.690848214285714  1.9831730769230769 14.072544642857144  C 1.686698717948718 14.45424107142857  1.5384615384615385 14.906249999999998  1.5384615384615385 15.428571428571427  C 1.5384615384615385 15.860491071428571  1.6426282051282053 16.24720982142857  1.8509615384615385 16.588727678571427  L 6.466346153846154 24.303013392857142  C 6.770833333333334 24.815290178571427  7.17948717948718 25.071428571428573  7.6923076923076925 25.071428571428573  L 16.322115384615387 25.071428571428573  C 16.498397435897438 25.071428571428573  16.656650641025642 25.003627232142858  16.796875 24.868024553571427  C 16.937099358974358 24.732421875  17.02724358974359 24.559151785714285  17.067307692307693 24.348214285714285  L 18.173076923076923 18.803571428571427  C 18.365384615384613 17.839285714285715  18.461538461538463 16.86495535714286  18.461538461538463 15.880580357142856  L 18.461538461538463 12.611049107142858  C 18.461538461538463 12.199218749999998  18.349358974358974 11.842633928571427  18.125 11.541294642857142  C 17.900641025641026 11.239955357142858  17.62820512820513 11.089285714285714  17.307692307692307 11.089285714285714  C 16.98717948717949 11.089285714285714  16.71474358974359 11.229910714285712  16.490384615384613 11.511160714285714  C 16.266025641025642 11.792410714285714  16.153846153846153 12.13392857142857  16.153846153846153 12.535714285714286  L 15.769230769230768 12.535714285714286  L 15.769230769230768 11.616629464285714  C 15.769230769230768 11.134486607142858  15.641025641025642 10.725167410714285  15.384615384615385 10.388671875  C 15.12820512820513 10.052176339285714  14.807692307692308 9.883928571428573  14.423076923076923 9.883928571428573  C 14.05448717948718 9.883928571428573  13.737980769230768 10.049665178571427  13.473557692307692 10.381138392857142  C 13.209134615384615 10.712611607142858  13.076923076923077 11.109374999999998  13.076923076923077 11.571428571428573  L 13.076923076923077 12.535714285714286  L 12.692307692307692 12.535714285714286  L 12.692307692307692 11.1796875  C 12.692307692307692 10.627232142857142  12.544070512820513 10.152622767857142  12.247596153846153 9.755859375  C 11.951121794871796 9.359095982142854  11.586538461538463 9.160714285714286  11.153846153846153 9.160714285714286  C 10.729166666666668 9.160714285714286  10.366586538461537 9.349051339285714  10.066105769230768 9.725725446428573  C 9.765625 10.102399553571427  9.615384615384615 10.55691964285714  9.615384615384615 11.089285714285714  L 9.615384615384615 12.535714285714286  L 9.230769230769232 12.535714285714286  L 9.230769230769232 3.9475446428571415  C 9.230769230769232 3.3950892857142843  9.082532051282051 2.9204799107142843  8.786057692307693 2.5237165178571415  Z M 5.516826923076923 1.1300223214285723  C 6.117788461538463 0.3766741071428584  6.842948717948718 0  7.6923076923076925 0  C 8.549679487179487 0  9.276842948717949 0.38922991071428714  9.873798076923077 1.1676897321428585  C 10.470753205128208 1.9461495535714266  10.769230769230768 2.8727678571428545  10.769230769230768 3.9475446428571415  L 10.769230769230768 7.2622767857142865  C 10.945512820512821 7.242187499999999  11.073717948717952 7.2321428571428585  11.153846153846153 7.2321428571428585  C 11.947115384615385 7.2321428571428585  12.64022435897436 7.5786830357142865  13.233173076923077 8.271763392857142  C 13.609775641025642 8.060825892857142  14.006410256410257 7.9553571428571415  14.423076923076923 7.9553571428571415  C 15.328525641025642 7.9553571428571415  16.06570512820513 8.392299107142858  16.634615384615387 9.266183035714286  C 16.850961538461537 9.195870535714285  17.075320512820515 9.160714285714286  17.307692307692307 9.160714285714286  C 18.060897435897438 9.160714285714286  18.697916666666668 9.499720982142858  19.21875 10.177734375  C 19.739583333333336 10.855747767857142  20 11.666852678571429  20 12.611049107142858  L 20 15.880580357142856  C 20 17.045758928571427  19.887820512820515 18.175781249999996  19.663461538461537 19.270647321428573  L 18.557692307692307 24.815290178571427  C 18.429487179487182 25.458147321428573  18.15705128205128 25.982979910714285  17.740384615384613 26.389787946428573  C 17.323717948717952 26.796595982142858  16.850961538461537 27  16.322115384615387 27  L 7.6923076923076925 27  C 7.211538461538462 27  6.752804487179488 26.861886160714285  6.316105769230768 26.585658482142858  C 5.879407051282052 26.30943080357143  5.516826923076924 25.93526785714286  5.228365384615384 25.463169642857142  L 0.6129807692307692 17.748883928571427  C 0.20432692307692307 17.06584821428571  0 16.292410714285715  0 15.428571428571427  C 0 14.373883928571427  0.2984775641025641 13.467354910714285  0.8954326923076923 12.708984375  C 1.4923878205128205 11.950613839285715  2.2115384615384617 11.571428571428573  3.052884615384616 11.571428571428573  C 3.6217948717948723 11.571428571428573  4.142628205128205 11.747209821428571  4.615384615384616 12.098772321428573  L 4.615384615384616 3.8571428571428585  C 4.615384615384616 2.7924107142857117  4.915865384615384 1.883370535714286  5.516826923076923 1.1300223214285723  Z M 8.846153846153847 21.214285714285715  L 9.230769230769232 21.214285714285715  L 9.230769230769232 15.428571428571427  L 8.846153846153847 15.428571428571427  L 8.846153846153847 21.214285714285715  Z M 11.923076923076923 21.214285714285715  L 12.307692307692308 21.214285714285715  L 12.307692307692308 15.428571428571427  L 11.923076923076923 15.428571428571427  L 11.923076923076923 21.214285714285715  Z M 15 21.214285714285715  L 15.384615384615385 21.214285714285715  L 15.384615384615385 15.428571428571427  L 15 15.428571428571427  L 15 21.214285714285715  Z " fill-rule="nonzero" fill="#000000" stroke="none" transform="matrix(1 0 0 1 447 599 )" />
  </g>
</svg>